<svg xmlns="http://www.w3.org/2000/svg" width="682.667" height="682.667" preserveAspectRatio="xMidYMid meet" version="1.0" viewBox="0 0 512 512"><metadata>Created by potrace 1.14, written by Peter Selinger 2001-2017</metadata><g fill="#000" stroke="none"><path d="M2429 5045 c-1 -5 -1 -12 -1 -15 0 -3 -30 -5 -66 -5 -37 0 -79 -3 -93 -6 -14 -4 -33 -3 -42 2 -12 7 -19 4 -27 -12 -8 -15 -15 -18 -22 -11 -8 8 -17 8 -31 1 -14 -8 -18 -8 -12 1 4 7 -6 6 -29 -4 -25 -10 -38 -12 -42 -4 -5 8 -11 7 -18 -3 -6 -8 -26 -15 -45 -17 -19 -1 -41 -8 -50 -15 -12 -10 -13 -9 -6 3 8 13 6 13 -8 2 -9 -8 -21 -11 -26 -8 -5 4 -13 1 -16 -5 -4 -5 -13 -8 -20 -5 -7 2 -16 -2 -20 -11 -4 -12 -9 -13 -17 -5 -8 8 -15 7 -25 -4 -8 -8 -19 -12 -24 -9 -5 4 -9 1 -9 -4 0 -6 -16 -11 -36 -11 -19 0 -33 -4 -29 -9 3 -5 1 -12 -5 -16 -5 -3 -10 -2 -10 3 0 6 -9 8 -20 5 -11 -3 -17 -10 -14 -15 4 -6 -2 -8 -15 -3 -14 4 -23 1 -27 -9 -3 -9 -10 -16 -16 -16 -5 0 -6 6 -3 13 4 6 -1 3 -9 -7 -10 -12 -16 -15 -16 -7 0 7 -9 3 -21 -10 -11 -13 -17 -17 -13 -9 5 10 -1 8 -16 -5 -14 -12 -20 -14 -15 -5 5 8 -8 2 -30 -14 -21 -16 -35 -23 -31 -15 6 11 5 11 -6 -1 -7 -8 -20 -16 -28 -18 -8 -2 -19 -9 -25 -15 -5 -7 -18 -11 -29 -9 -11 2 -16 0 -12 -7 5 -7 -1 -11 -14 -11 -14 0 -19 -4 -14 -12 5 -8 2 -9 -9 -5 -11 4 -17 1 -17 -7 0 -7 -7 -13 -15 -14 -8 -1 -21 -3 -29 -4 -8 -1 -12 -8 -8 -17 3 -9 2 -13 -3 -9 -4 4 -17 2 -29 -4 -11 -7 -25 -11 -29 -10 -5 1 -6 -1 -4 -5 6 -10 -19 -34 -27 -26 -3 4 -6 0 -6 -7 0 -7 -3 -11 -6 -8 -3 4 -15 -3 -27 -13 -59 -53 -60 -54 -52 -39 8 15 -11 -1 -60 -48 -13 -13 -29 -21 -35 -17 -6 3 -10 3 -9 -2 3 -17 -1 -33 -9 -32 -17 3 -32 -1 -29 -8 1 -5 -2 -10 -7 -13 -20 -11 -121 -115 -118 -122 1 -4 -1 -7 -5 -7 -21 3 -33 -2 -31 -13 2 -7 -3 -12 -10 -10 -8 1 -11 -1 -8 -6 3 -4 -8 -21 -25 -36 -16 -15 -29 -32 -29 -37 0 -5 -7 -9 -16 -9 -8 0 -12 -4 -9 -10 3 -5 1 -10 -6 -10 -7 0 -10 -3 -7 -6 8 -7 -34 -50 -45 -46 -5 1 -6 -2 -3 -6 3 -5 -5 -21 -18 -35 -13 -14 -21 -28 -19 -31 3 -3 -2 -8 -11 -12 -9 -3 -16 -12 -16 -19 0 -7 -7 -16 -16 -19 -8 -3 -13 -10 -10 -15 3 -5 -1 -12 -10 -15 -9 -4 -14 -13 -10 -22 3 -8 2 -13 -2 -11 -7 5 -40 -24 -34 -30 7 -9 -1 -25 -25 -49 -16 -15 -22 -23 -15 -19 11 6 11 3 0 -14 -7 -12 -15 -21 -19 -21 -3 0 -11 -16 -19 -35 -8 -19 -18 -35 -22 -35 -5 0 -6 -5 -3 -10 3 -6 0 -13 -9 -16 -9 -3 -12 -12 -9 -21 4 -11 2 -14 -5 -9 -7 4 -10 -1 -7 -14 2 -11 0 -20 -6 -20 -5 0 -9 -7 -9 -16 0 -8 -5 -12 -11 -9 -6 4 -9 1 -8 -6 4 -20 -11 -59 -22 -59 -6 0 -8 -4 -5 -9 3 -5 -1 -23 -10 -40 -8 -17 -12 -36 -8 -42 4 -8 3 -9 -4 -5 -7 4 -12 1 -12 -6 0 -7 -7 -26 -15 -41 -9 -19 -10 -25 -2 -21 7 4 3 -2 -7 -14 -14 -16 -15 -22 -6 -22 9 0 7 -5 -5 -13 -10 -8 -15 -19 -11 -25 3 -6 2 -13 -3 -17 -5 -3 -8 -14 -6 -25 3 -13 0 -18 -7 -14 -7 5 -9 1 -5 -9 3 -10 2 -17 -2 -17 -5 0 -7 -9 -4 -20 3 -11 1 -20 -4 -20 -8 0 -12 -17 -13 -63 -1 -11 -6 -15 -13 -10 -7 4 -5 -2 3 -12 8 -10 10 -16 4 -12 -14 8 -20 -8 -19 -50 1 -18 -1 -33 -4 -33 -3 0 -7 -19 -8 -41 -2 -23 -8 -49 -15 -57 -10 -13 -10 -14 0 -8 16 10 15 -5 -3 -31 -11 -16 -12 -24 -4 -29 8 -5 9 -3 4 6 -5 9 -4 11 4 6 8 -5 8 -13 -3 -28 -10 -14 -12 -28 -6 -49 5 -16 5 -27 0 -24 -5 3 -7 -9 -6 -27 2 -18 -2 -36 -8 -40 -7 -5 -3 -8 9 -9 l20 0 -20 -9 c-11 -5 -14 -9 -7 -9 19 -1 14 -21 -5 -21 -15 0 -14 -2 3 -15 14 -11 15 -14 4 -15 -13 0 -13 -1 0 -10 11 -7 11 -10 2 -10 -9 0 -10 -5 -3 -19 8 -15 7 -20 -5 -25 -13 -5 -14 -9 -4 -21 7 -8 10 -31 8 -50 -2 -19 0 -35 4 -35 5 0 4 -9 -2 -20 -8 -15 -8 -20 1 -20 6 0 9 -6 6 -14 -3 -8 -1 -17 6 -20 9 -3 9 -5 0 -5 -9 -1 -10 -8 -3 -25 6 -16 5 -28 -3 -36 -9 -10 -9 -11 0 -6 8 4 11 -4 10 -26 0 -18 3 -53 8 -78 5 -25 9 -55 9 -67 1 -12 5 -25 10 -30 5 -5 6 -2 1 6 -6 10 -4 12 4 7 9 -6 9 -11 0 -22 -9 -11 -9 -14 0 -14 9 0 9 -5 1 -20 -9 -16 -8 -22 5 -26 8 -3 15 -10 15 -16 0 -5 -6 -6 -12 -2 -10 6 -10 5 -1 -8 7 -8 10 -18 6 -21 -3 -4 -1 -7 6 -7 7 0 9 -5 6 -10 -4 -6 0 -24 9 -40 9 -19 10 -28 3 -23 -8 5 -8 2 0 -9 7 -8 10 -18 6 -21 -3 -4 -2 -7 3 -7 5 0 10 -14 11 -31 1 -17 8 -37 14 -45 6 -8 8 -14 4 -14 -5 0 0 -10 11 -22 10 -12 13 -18 5 -13 -11 6 -10 2 2 -15 13 -19 14 -27 4 -39 -7 -8 -7 -12 -2 -9 6 4 17 3 25 -3 9 -5 10 -9 3 -9 -8 0 -8 -6 0 -24 7 -13 16 -22 20 -19 5 3 6 -4 2 -16 -4 -13 -2 -21 5 -21 7 0 10 -8 7 -20 -3 -13 4 -31 19 -49 13 -15 21 -31 17 -35 -3 -3 -1 -6 6 -6 7 0 10 -4 7 -8 -3 -5 3 -18 13 -28 10 -11 17 -27 15 -36 -1 -9 5 -19 13 -22 8 -3 11 -10 8 -16 -3 -5 -1 -10 4 -10 6 0 11 -7 11 -15 0 -8 5 -15 11 -15 5 0 7 -5 4 -10 -3 -6 -3 -10 2 -10 4 0 17 -18 27 -40 11 -22 23 -40 28 -40 4 0 8 -7 8 -15 0 -9 7 -18 16 -22 8 -3 13 -12 10 -20 -3 -8 -1 -11 4 -8 6 3 10 -1 10 -10 0 -8 7 -18 15 -21 8 -4 12 -10 9 -15 -3 -5 0 -9 6 -9 6 0 9 -3 7 -7 -5 -11 30 -43 38 -35 3 4 3 -1 0 -9 -4 -10 4 -23 20 -35 14 -10 25 -22 25 -27 0 -4 12 -19 26 -32 15 -14 24 -25 20 -25 -4 0 -1 -7 8 -15 8 -8 20 -15 26 -15 6 0 9 -4 5 -9 -3 -5 4 -16 15 -24 11 -7 17 -17 13 -20 -3 -4 -1 -7 6 -7 14 0 81 -67 73 -75 -3 -3 1 -5 9 -5 8 0 23 -11 33 -25 10 -14 25 -25 32 -25 7 0 16 -5 20 -12 5 -7 2 -9 -7 -4 -8 4 -5 1 6 -8 11 -8 31 -23 44 -33 13 -10 32 -26 42 -36 11 -9 23 -17 28 -17 5 0 16 -10 25 -23 9 -12 14 -16 10 -8 -5 10 -3 12 5 7 7 -5 10 -15 7 -23 -4 -10 -2 -13 8 -10 7 3 23 -3 35 -14 12 -11 27 -17 34 -13 6 4 9 4 5 -1 -8 -8 29 -39 47 -40 6 -1 9 -6 8 -12 -1 -6 4 -14 13 -17 10 -4 13 -1 9 7 -4 6 0 4 9 -7 8 -10 18 -16 23 -13 11 7 33 -19 25 -29 -4 -5 -3 -6 2 -2 5 4 23 -1 41 -12 18 -11 35 -17 38 -13 4 3 7 1 7 -5 0 -7 7 -12 15 -12 8 0 15 -4 15 -10 0 -5 9 -10 20 -10 11 0 20 -5 20 -11 0 -5 5 -7 10 -4 6 3 10 1 10 -4 0 -6 8 -11 18 -11 10 0 27 -7 38 -15 10 -8 27 -15 37 -15 10 0 16 -4 13 -8 -2 -4 5 -9 16 -9 12 -1 25 -8 29 -15 7 -11 9 -11 9 0 0 10 4 9 16 -2 8 -9 20 -14 25 -11 5 4 9 2 9 -4 0 -6 7 -8 15 -5 8 4 15 1 15 -6 0 -6 5 -8 10 -5 5 3 10 1 10 -5 0 -6 4 -9 9 -5 5 3 13 0 16 -6 4 -5 13 -8 21 -5 8 3 14 1 14 -3 0 -5 8 -8 18 -7 9 2 28 -4 42 -13 20 -13 23 -14 15 -1 -6 11 -3 11 11 -2 11 -9 28 -16 39 -14 11 2 31 -4 45 -13 22 -14 24 -14 15 0 -5 8 -2 6 8 -4 10 -11 17 -14 17 -7 0 9 4 9 17 -1 11 -9 14 -10 9 -2 -5 9 -2 11 8 7 9 -3 14 -9 12 -13 -2 -3 20 -6 49 -6 29 0 51 -4 48 -9 -3 -5 0 -6 8 -4 8 3 23 -2 34 -11 19 -15 19 -15 5 3 -14 18 -14 19 5 9 11 -5 27 -9 35 -8 8 1 22 -2 31 -6 9 -5 21 -3 29 4 9 8 11 8 6 0 -8 -14 100 -22 116 -8 7 7 9 6 5 -1 -11 -19 32 -24 43 -6 6 11 9 12 10 4 0 -7 4 -10 10 -7 6 3 10 2 10 -4 0 -7 8 -7 25 -1 15 6 26 6 30 -1 4 -5 9 -8 13 -5 4 2 31 6 60 10 42 5 52 3 46 -6 -6 -9 -3 -9 9 1 14 11 17 11 17 0 0 -11 2 -11 8 -1 5 7 22 10 40 8 18 -2 32 1 32 5 0 5 5 9 11 9 5 0 7 -6 3 -12 -6 -10 -4 -10 7 -2 8 5 21 10 29 9 8 0 18 4 22 10 5 6 8 5 8 -3 0 -9 5 -10 18 -4 9 5 23 7 31 4 8 -3 11 0 7 7 -5 8 0 8 16 2 24 -8 51 -4 44 7 -2 4 13 6 35 6 23 -1 39 3 39 9 0 8 3 8 11 0 9 -9 18 -8 35 4 16 10 24 11 24 4 0 -7 5 -9 10 -6 6 4 8 10 6 14 -3 4 4 8 15 8 11 1 17 -3 13 -9 -4 -5 5 -2 19 7 15 9 31 14 37 10 5 -3 10 -1 10 5 0 6 5 8 10 5 6 -3 10 -1 10 6 0 8 4 8 15 -1 10 -8 15 -9 15 -2 0 6 16 14 35 18 19 3 35 9 35 13 0 6 17 10 58 13 6 1 12 6 12 11 0 5 6 7 14 4 8 -3 16 -1 18 4 2 5 16 11 32 13 16 2 33 10 38 19 4 9 15 14 23 11 8 -4 15 -1 15 5 0 6 5 11 11 11 5 0 7 -6 4 -13 -4 -6 0 -4 8 5 8 10 17 15 20 11 4 -3 7 -1 7 5 0 7 8 12 19 12 10 0 30 9 44 20 15 12 29 21 32 20 25 -2 35 2 30 10 -3 6 -1 11 4 11 6 1 16 3 21 4 6 1 15 3 22 4 6 0 8 4 5 8 -4 3 3 11 16 18 15 8 24 8 29 1 5 -7 8 -5 8 4 0 27 21 41 39 28 9 -7 13 -9 9 -4 -8 10 14 36 25 29 4 -2 7 1 7 8 0 7 3 10 6 6 8 -8 44 25 38 35 -3 4 1 5 9 2 8 -3 18 0 22 5 3 6 11 8 17 5 8 -5 9 -1 5 11 -6 14 -3 16 13 12 11 -3 18 -2 16 2 -7 11 28 38 44 33 9 -3 11 1 7 12 -6 15 8 21 35 17 4 0 5 6 1 15 -3 8 -1 14 5 12 5 -2 19 8 31 21 12 13 21 21 21 17 0 -4 15 9 34 28 18 20 36 33 40 29 3 -3 6 2 6 13 0 16 2 17 10 4 8 -13 10 -12 11 5 1 11 1 24 0 28 -1 5 3 6 7 3 11 -7 52 27 52 43 0 6 7 11 16 11 8 0 13 4 9 9 -3 5 4 12 15 16 11 4 18 11 15 16 -4 5 -1 9 4 9 6 0 11 7 11 16 0 10 6 14 15 10 8 -3 14 0 12 7 -1 7 4 11 11 9 8 -1 11 2 7 8 -4 6 10 27 32 47 21 20 32 34 26 29 -9 -5 -11 -2 -7 8 3 9 9 14 13 12 10 -7 28 19 25 37 -1 9 2 15 7 11 5 -3 12 2 15 10 3 9 11 13 18 9 6 -3 8 -3 4 2 -4 4 4 23 19 41 14 19 22 34 17 34 -5 0 2 7 14 16 12 8 20 20 17 25 -4 5 -1 9 6 9 7 0 10 3 6 6 -3 4 1 13 9 21 8 8 12 19 8 24 -3 5 0 8 8 7 8 -2 12 4 10 16 -2 11 1 15 7 11 10 -5 15 7 12 27 0 5 4 8 10 8 6 0 9 5 7 12 -3 7 7 22 20 35 14 13 22 29 18 38 -3 9 0 15 9 15 7 0 17 5 21 12 5 8 2 9 -11 4 -16 -6 -16 -4 -4 11 8 10 18 21 22 24 5 3 9 10 9 15 1 17 17 52 27 59 6 3 11 11 11 18 0 6 -7 2 -16 -9 -14 -18 -15 -18 -4 4 6 12 15 22 20 22 5 0 7 9 5 20 -2 11 1 20 6 20 6 0 7 5 4 10 -3 6 -1 10 5 10 6 0 8 5 5 10 -3 6 -1 10 5 10 6 0 9 4 6 9 -8 13 4 42 15 36 4 -3 6 4 4 15 -2 11 1 20 7 20 7 0 6 5 -2 15 -10 12 -9 16 4 21 9 3 16 10 16 16 0 5 -6 6 -12 2 -7 -4 -4 3 7 16 13 15 15 21 5 16 -13 -7 -13 -6 0 6 14 12 17 21 22 80 2 14 7 24 12 20 5 -3 7 2 3 11 -3 9 -2 19 4 23 6 4 5 12 -3 22 -10 12 -10 14 0 8 8 -5 12 -1 12 12 0 10 3 22 7 26 11 11 10 46 -1 46 -6 0 -5 4 2 9 12 7 20 49 24 134 2 20 6 37 10 37 5 0 8 5 8 11 0 5 -4 7 -10 4 -5 -3 -10 -1 -10 4 0 6 8 11 18 11 9 0 13 4 7 8 -14 10 -16 25 -5 61 5 18 5 33 0 36 -5 3 -5 16 0 31 13 33 12 37 -2 28 -7 -5 -8 -3 -2 7 14 23 16 51 2 43 -7 -5 -8 -3 -2 7 13 22 14 43 1 51 -9 6 -9 8 0 8 12 0 11 39 -2 60 -5 9 -4 11 3 6 9 -5 10 0 4 16 -9 30 -8 70 3 87 6 10 4 12 -5 6 -9 -6 -12 -4 -8 7 4 8 2 21 -2 29 -6 8 -4 16 3 21 9 6 8 8 -2 8 -11 0 -11 3 -1 15 10 12 9 16 -3 21 -9 3 -13 12 -11 19 3 7 1 23 -5 34 -10 18 -9 20 6 14 14 -5 12 0 -7 21 -21 23 -22 26 -5 20 17 -7 18 -6 7 8 -7 9 -12 20 -11 24 1 5 0 11 -1 14 -6 15 -12 48 -13 73 -1 15 -5 27 -9 27 -4 0 -5 6 -2 14 3 8 1 17 -5 20 -6 4 -8 13 -4 21 3 8 0 15 -5 15 -6 0 -9 9 -7 20 2 11 -2 25 -8 32 -12 13 -20 44 -21 85 -1 11 -4 19 -8 17 -7 -4 -15 17 -23 57 -3 12 -8 25 -13 28 -5 3 -8 14 -6 24 1 9 -2 17 -7 17 -6 0 -7 5 -4 10 3 6 1 10 -5 10 -7 0 -9 7 -6 16 4 10 2 13 -6 8 -7 -5 -9 -2 -5 8 3 9 -3 25 -13 36 -11 11 -15 22 -10 24 5 2 -4 23 -20 47 -16 24 -27 47 -24 52 3 5 0 9 -6 9 -7 0 -9 7 -6 16 3 8 2 13 -3 10 -11 -7 -23 22 -14 36 3 6 1 8 -4 5 -6 -4 -17 1 -24 10 -11 13 -11 15 -1 9 11 -7 11 -4 1 12 -7 12 -17 19 -21 16 -4 -3 -5 2 -2 10 3 9 1 16 -6 16 -6 0 -9 4 -6 9 3 5 -1 12 -10 15 -9 4 -14 13 -10 21 3 9 0 15 -10 15 -8 0 -13 4 -9 9 3 6 -5 19 -17 30 -12 12 -18 21 -14 21 4 0 -4 11 -18 23 -14 13 -23 27 -19 30 3 4 1 7 -6 7 -7 0 -10 4 -7 9 3 5 -1 12 -10 15 -8 3 -13 10 -9 15 3 5 -4 12 -15 16 -11 4 -18 11 -15 16 4 5 -1 12 -9 15 -9 3 -16 12 -16 20 0 7 -8 19 -18 26 -10 7 -27 26 -37 41 -11 18 -24 26 -33 22 -12 -4 -13 -3 -2 10 10 12 10 15 -3 15 -9 0 -19 9 -22 20 -3 11 -10 20 -15 20 -12 0 -70 57 -70 69 0 6 -7 11 -15 11 -8 0 -15 5 -15 10 0 6 -8 10 -17 10 -15 0 -16 2 -3 10 12 8 12 10 1 10 -8 0 -27 13 -42 30 -16 16 -29 26 -29 22 0 -4 -6 0 -13 9 -7 9 -22 21 -35 28 -12 7 -20 16 -17 20 2 5 -8 14 -23 20 -32 13 -84 56 -77 63 3 2 -2 5 -10 6 -8 1 -22 3 -30 4 -8 1 -13 4 -10 6 5 5 -59 52 -71 52 -4 0 -13 8 -20 18 -7 9 -16 17 -21 18 -14 1 -67 28 -81 41 -8 7 -17 11 -22 8 -4 -3 -11 2 -14 11 -3 8 -10 12 -16 9 -6 -3 -13 1 -16 10 -4 8 -11 15 -18 14 -24 -3 -37 1 -32 10 4 5 -5 8 -19 7 -14 -2 -32 5 -41 15 -9 10 -21 16 -25 13 -5 -3 -9 0 -9 6 0 6 -4 8 -10 5 -5 -3 -10 -1 -10 5 0 6 -4 9 -9 5 -5 -3 -15 0 -23 7 -7 7 -24 15 -38 16 -14 2 -27 8 -28 13 -2 6 -11 4 -20 -3 -9 -8 -13 -8 -9 -2 7 12 -11 22 -52 30 -14 3 -29 8 -35 12 -6 3 -20 5 -31 4 -17 -2 -18 -1 -5 8 12 10 11 11 -7 7 -13 -3 -23 -2 -23 2 0 4 -11 8 -25 9 -46 3 -55 5 -55 12 0 4 -6 7 -12 8 -24 3 -53 9 -87 16 -24 6 -36 4 -43 -5 -8 -11 -9 -10 -5 3 4 11 0 17 -11 17 -43 2 -58 4 -69 14 -10 7 -13 4 -13 -9 -1 -17 -2 -17 -10 -2 -7 11 -20 15 -40 13 -17 -2 -30 -1 -30 4 0 4 -14 6 -30 3 -20 -3 -37 2 -50 13 -18 16 -20 16 -26 1 -5 -14 -9 -14 -22 -4 -13 11 -14 11 -8 -1 7 -11 5 -11 -9 -4 -10 6 -27 8 -38 5 -15 -4 -18 -2 -12 9 7 11 6 12 -6 2 -12 -10 -18 -10 -29 0 -7 6 -10 7 -7 1 4 -7 -12 -11 -48 -11 -33 0 -52 4 -48 10 4 6 1 7 -8 1 -20 -12 -63 -12 -71 0 -5 7 -8 7 -9 1z m336 -15 c3 -5 1 -10 -4 -10 -6 0 -11 5 -11 10 0 6 2 10 4 10 3 0 8 -4 11 -10z m-2467 -3515 c-3 -3 -9 2 -12 12 -6 14 -5 15 5 6 7 -7 10 -15 7 -18z" transform="translate(0.000000,512.000000) scale(0.100000,-0.100000)"/></g></svg>